<svg width="25" height="25" fill="none" xmlns="http://www.w3.org/2000/svg"><path fill-rule="evenodd" clip-rule="evenodd" d="M.296 13.007a.897.897 0 000 1.332l11.601 10.384c.401.37 1.052.37 1.451-.003l11.356-10.607a.897.897 0 000-1.333 1.082 1.082 0 00-1.454 0l-10.436 9.748h-.392L1.746 13.003c-.4-.37-1.05-.37-1.45.004z" fill="#00AFEA"/><path fill-rule="evenodd" clip-rule="evenodd" d="M.296.507a.897.897 0 000 1.332l11.601 10.384c.401.37 1.052.37 1.451-.003L24.704 1.613a.897.897 0 000-1.333 1.082 1.082 0 00-1.454 0l-10.436 9.748h-.392L1.746.503c-.4-.37-1.05-.37-1.45.004z" fill="#00AFEA"/></svg>