<svg width="25" height="25" viewBox="0 0 25 25" fill="none" xmlns="http://www.w3.org/2000/svg">
<path fill-rule="evenodd" clip-rule="evenodd" d="M0.296264 13.0065C-0.0987545 13.3755 -0.0987545 13.9701 0.296264 14.3391L11.8975 24.7227C12.2981 25.0935 12.9488 25.0924 13.348 24.7196L24.7037 14.113C25.0988 13.744 25.0988 13.1494 24.7037 12.7804C24.3034 12.4065 23.6502 12.4065 23.2499 12.7804L12.8143 22.5276H12.4223L1.74645 13.0032C1.34581 12.6326 0.695376 12.6338 0.296264 13.0065Z" fill="#00AFEA"/>
<path fill-rule="evenodd" clip-rule="evenodd" d="M0.296264 0.506535C-0.0987545 0.875492 -0.0987545 1.4701 0.296264 1.83906L11.8975 12.2227C12.2981 12.5935 12.9488 12.5924 13.348 12.2196L24.7037 1.61295C25.0988 1.244 25.0988 0.649391 24.7037 0.280434C24.3034 -0.0934783 23.6502 -0.093478 23.2499 0.280435L12.8143 10.0276H12.4223L1.74645 0.503155C1.34581 0.132626 0.695376 0.133753 0.296264 0.506535Z" fill="#00AFEA"/>
</svg>
