<svg width="9" height="9" viewBox="0 0 9 9" fill="none" xmlns="http://www.w3.org/2000/svg">
<path d="M4.31546 0.00389745C5.09427 -0.0288964 5.88132 0.145812 6.57229 0.50712C7.5889 1.03182 8.38919 1.95964 8.75682 3.04337C9.03433 3.84711 9.07498 4.73005 8.87438 5.55641C8.71233 6.22878 8.39245 6.8628 7.94733 7.39229C7.51028 7.91469 6.95221 8.33507 6.32951 8.61142C5.5856 8.94338 4.75061 9.06746 3.94246 8.96505C3.0342 8.85344 2.16373 8.45531 1.48561 7.84067C0.949973 7.35835 0.53305 6.74524 0.28259 6.06941C0.00604744 5.32839 -0.070088 4.51391 0.0654982 3.73453C0.218153 2.84354 0.647157 2.00202 1.28021 1.3565C2.0711 0.54164 3.18015 0.0458966 4.31546 0.00389745ZM4.25179 1.72049C4.1515 1.79605 4.09013 1.91975 4.09128 2.04555C4.09051 2.83126 4.09147 3.61697 4.09089 4.40268C4.09051 4.48572 4.08668 4.57241 4.12024 4.65065C4.14881 4.72947 4.2096 4.78969 4.26848 4.84703C4.63324 5.21121 4.99762 5.57597 5.36218 5.94054C5.41952 5.9975 5.47437 6.06078 5.54917 6.0953C5.67248 6.15629 5.8259 6.14824 5.94231 6.07517C6.05009 6.00939 6.12354 5.89125 6.13447 5.76545C6.14674 5.64578 6.10129 5.52266 6.01633 5.43789C5.64755 5.06796 5.27742 4.69974 4.90901 4.32962C4.90978 3.60643 4.90901 2.88343 4.9094 2.16024C4.90901 2.09599 4.91247 2.03136 4.90153 1.96788C4.8768 1.83326 4.7788 1.71512 4.65146 1.66545C4.52086 1.61214 4.36303 1.63362 4.25179 1.72049Z" fill="#00AFEA"/>
</svg>
