<svg width="13" height="13" viewBox="0 0 13 13" fill="none" xmlns="http://www.w3.org/2000/svg">
<path fill-rule="evenodd" clip-rule="evenodd" d="M6.4998 11.7C9.37169 11.7 11.6998 9.37193 11.6998 6.50005C11.6998 3.62817 9.37169 1.30005 6.4998 1.30005C3.62792 1.30005 1.2998 3.62817 1.2998 6.50005C1.2998 9.37193 3.62792 11.7 6.4998 11.7ZM6.4998 12C9.53737 12 11.9998 9.53761 11.9998 6.50005C11.9998 3.46248 9.53737 1.00005 6.4998 1.00005C3.46224 1.00005 0.999805 3.46248 0.999805 6.50005C0.999805 9.53761 3.46224 12 6.4998 12Z" fill="#00AFEA"/>
<path fill-rule="evenodd" clip-rule="evenodd" d="M6.4998 11.5C9.26123 11.5 11.4998 9.26147 11.4998 6.50005C11.4998 3.73862 9.26123 1.50005 6.4998 1.50005C3.73838 1.50005 1.4998 3.73862 1.4998 6.50005C1.4998 9.26147 3.73838 11.5 6.4998 11.5ZM12.1998 6.50005C12.1998 9.64807 9.64783 12.2 6.4998 12.2C3.35178 12.2 0.799805 9.64807 0.799805 6.50005C0.799805 3.35203 3.35178 0.800049 6.4998 0.800049C9.64783 0.800049 12.1998 3.35203 12.1998 6.50005ZM11.6998 6.50005C11.6998 9.37193 9.37169 11.7 6.4998 11.7C3.62792 11.7 1.2998 9.37193 1.2998 6.50005C1.2998 3.62817 3.62792 1.30005 6.4998 1.30005C9.37169 1.30005 11.6998 3.62817 11.6998 6.50005ZM11.9998 6.50005C11.9998 9.53761 9.53737 12 6.4998 12C3.46224 12 0.999805 9.53761 0.999805 6.50005C0.999805 3.46248 3.46224 1.00005 6.4998 1.00005C9.53737 1.00005 11.9998 3.46248 11.9998 6.50005Z" fill="#00AFEA"/>
<path d="M8.9998 6.50005C8.9998 7.88076 7.88052 9.00005 6.4998 9.00005C5.11909 9.00005 3.9998 7.88076 3.9998 6.50005C3.9998 5.11934 5.11909 4.00005 6.4998 4.00005C7.88052 4.00005 8.9998 5.11934 8.9998 6.50005Z" fill="#00AFEA"/>
</svg>
