<svg width="13" height="13" fill="none" xmlns="http://www.w3.org/2000/svg"><path fill-rule="evenodd" clip-rule="evenodd" d="M6.5 11.7a5.2 5.2 0 100-10.4 5.2 5.2 0 000 10.4zm0 .3a5.5 5.5 0 100-11 5.5 5.5 0 000 11z" fill="#00AFEA"/><path fill-rule="evenodd" clip-rule="evenodd" d="M6.5 11.5a5 5 0 100-10 5 5 0 000 10zm5.7-5a5.7 5.7 0 11-11.4 0 5.7 5.7 0 0111.4 0zm-.5 0a5.2 5.2 0 11-10.4 0 5.2 5.2 0 0110.4 0zm.3 0a5.5 5.5 0 11-11 0 5.5 5.5 0 0111 0z" fill="#00AFEA"/><path d="M9 6.5a2.5 2.5 0 11-5 0 2.5 2.5 0 015 0z" fill="#00AFEA"/></svg>