<svg width="10" height="8" fill="none" xmlns="http://www.w3.org/2000/svg"><path d="M.273.268A.924.924 0 01.937 0h8.126A.922.922 0 0110 .9v.08a.895.895 0 01-.392.672c-1.36.908-2.72 1.814-4.08 2.72a.928.928 0 01-1.068-.008C3.1 3.457 1.74 2.552.38 1.644A.892.892 0 010 .982V.9A.925.925 0 01.273.268z" fill="#00AFEA"/><path d="M0 2.092c.032.024.065.046.098.069l3.879 2.585c.135.09.267.186.416.25a1.5 1.5 0 001.2.006c.146-.06.275-.152.406-.238l2.157-1.439C8.77 2.914 9.39 2.51 10 2.092V6.59a.916.916 0 01-.84.896c-.085.007-.17.004-.254.005H.936A.927.927 0 010 6.59V2.093z" fill="#00AFEA"/></svg>