<svg width="20" height="15" fill="none" xmlns="http://www.w3.org/2000/svg"><path d="M.546.535A1.849 1.849 0 011.874 0h16.253A1.844 1.844 0 0120 1.8v.158a1.79 1.79 0 01-.783 1.346l-8.16 5.442a1.857 1.857 0 01-2.138-.018L.762 3.29A1.784 1.784 0 010 1.96V1.8A1.85 1.85 0 01.546.535z" fill="#00AFEA"/><path d="M0 4.183c.064.049.13.093.197.138l7.757 5.171c.27.178.534.372.833.5a3.007 3.007 0 002.4.013c.291-.122.55-.305.81-.478l4.315-2.877C17.54 5.827 18.778 5.017 20 4.184v8.994c-.013.47-.208.934-.544 1.265a1.832 1.832 0 01-1.137.527c-.169.014-.338.008-.507.009H1.873A1.85 1.85 0 010 13.18V4.183z" fill="#00AFEA"/></svg>