<svg width="9" height="9" fill="none" xmlns="http://www.w3.org/2000/svg"><path d="M4.413 0h.14c.69.012 1.377.19 1.962.517A3.61 3.61 0 017.882 1.83c.263.447.41.947.426 1.45a3.06 3.06 0 01-.412 1.637 3.923 3.923 0 01-.47.638C6.502 6.65 5.577 7.745 4.65 8.84h-.331c-.97-1.144-1.936-2.289-2.904-3.433a3.197 3.197 0 01-.678-1.33A3.02 3.02 0 01.93 2.124c.295-.651.828-1.216 1.5-1.593A4.204 4.204 0 014.413 0zm-.116 2.274c-.28.036-.545.16-.738.342-.22.205-.347.485-.345.768-.002.278.12.554.335.758.165.16.384.277.622.33.283.064.59.038.854-.074.3-.125.54-.358.652-.635a1 1 0 000-.758 1.183 1.183 0 00-.59-.607 1.411 1.411 0 00-.79-.124z" fill="#00AFEA"/></svg>