<svg width="9" height="9" viewBox="0 0 9 9" fill="none" xmlns="http://www.w3.org/2000/svg">
<path d="M4.41289 0H4.55215C5.24336 0.011568 5.93028 0.19044 6.51485 0.517451C7.09141 0.837383 7.56895 1.29509 7.88184 1.82964C8.14532 2.27665 8.292 2.77683 8.3084 3.28047C8.3295 3.84505 8.18575 4.41344 7.8961 4.9169C7.76797 5.14498 7.60157 5.3539 7.42657 5.55539C6.50098 6.65037 5.5752 7.74519 4.64942 8.84H4.31758C3.34864 7.69615 2.38184 6.5511 1.41387 5.40656C1.08164 5.01394 0.848246 4.5564 0.735941 4.07624C0.582035 3.42792 0.649222 2.73971 0.930082 2.1254C1.225 1.47276 1.7584 0.907827 2.42871 0.530573C3.01778 0.19562 3.71329 0.0129492 4.41289 0ZM4.29688 2.27388C4.01641 2.30997 3.75235 2.43342 3.55918 2.61643C3.33848 2.82051 3.21192 3.10125 3.21368 3.38372C3.21192 3.66169 3.33438 3.93846 3.54883 4.14185C3.71426 4.30225 3.93282 4.41862 4.1709 4.4718C4.45372 4.53568 4.76133 4.50978 5.02481 4.39842C5.3252 4.27324 5.56582 4.03981 5.67735 3.76322C5.77696 3.52063 5.77715 3.24749 5.67754 3.00491C5.57403 2.74782 5.35879 2.52803 5.0877 2.39785C4.84883 2.28148 4.56641 2.23866 4.29688 2.27388Z" fill="#00AFEA"/>
</svg>
