<svg width="13" height="17" fill="none" xmlns="http://www.w3.org/2000/svg"><path d="M6.381 0h.237A6.49 6.49 0 019.95.995a6.55 6.55 0 012.321 2.524 6.51 6.51 0 01.024 5.937c-.217.438-.5.84-.797 1.227L6.783 17h-.564c-1.645-2.2-3.287-4.402-4.93-6.603a6.517 6.517 0 01-.822-6.31A6.544 6.544 0 013.012 1.02c1-.644 2.181-.995 3.37-1.02zm-.197 4.373c-.476.07-.925.307-1.253.659a2.14 2.14 0 00-.586 1.475 2.145 2.145 0 00.569 1.458c.28.309.652.532 1.056.635a2.153 2.153 0 002.558-1.363 2.159 2.159 0 00-2.344-2.864z" fill="#00AFEA"/></svg>