<svg width="40" height="24" fill="none" xmlns="http://www.w3.org/2000/svg"><path d="M34.071.023a1.467 1.467 0 011.362.479 17.53 17.53 0 013.722 7.855 17.619 17.619 0 01-.794 9.535 17.591 17.591 0 01-2.923 5.04 1.467 1.467 0 11-2.209-1.93 14.626 14.626 0 003.017-6.336A14.643 14.643 0 0033.23 2.438a1.49 1.49 0 01-.342-1.225A1.472 1.472 0 0134.07.022z" fill="#126C8A"/><path d="M29.683 6.084a1.47 1.47 0 011.514.336c.22.195.306.482.436.736a10.335 10.335 0 01-.1 9.966c-.162.288-.42.52-.729.644-.57.236-1.288.072-1.685-.406a1.461 1.461 0 01-.188-1.608c.167-.317.342-.63.475-.962.897-2.121.698-4.657-.512-6.616-.457-.747-.042-1.826.789-2.09zM4.905.022A1.47 1.47 0 016.431.76c.304.531.214 1.235-.189 1.69a14.658 14.658 0 00-3.176 7.156c-.604 3.956.544 8.13 3.058 11.238.203.244.402.51.459.83a1.468 1.468 0 01-.61 1.512 1.476 1.476 0 01-1.563.053c-.26-.142-.438-.383-.615-.611a17.515 17.515 0 01-3.334-6.901c-.735-3.13-.59-6.462.422-9.514A17.53 17.53 0 014.033.518a1.45 1.45 0 01.872-.496z" fill="#126C8A"/><path d="M8.874 6.044a1.454 1.454 0 011.415.416c.373.394.494 1.002.298 1.508-.156.36-.374.69-.514 1.06a7.334 7.334 0 00.378 6.396c.22.354.32.791.21 1.2a1.444 1.444 0 01-1.053 1.05c-.563.162-1.204-.079-1.538-.557-1.924-3.134-1.94-7.324-.048-10.478.197-.295.508-.51.852-.595z" fill="#126C8A"/><path d="M18.884 8.084a4.01 4.01 0 013.145.659 4.003 4.003 0 01.55 6.04 4 4 0 11-3.695-6.699z" fill="#00AFEA"/></svg>