<svg width="28" height="40" fill="none" xmlns="http://www.w3.org/2000/svg"><path d="M13.73 0h.533c2.365.052 4.715.735 6.721 1.991a13.371 13.371 0 015.262 6.156c1.071 2.522 1.297 5.372.738 8.047-.38 1.822-1.173 3.534-2.154 5.108-1.042 1.686-2.25 3.26-3.47 4.82-.85 1.1-1.712 2.19-2.564 3.288 1.8.278 3.597.696 5.257 1.465.95.445 1.875 1.012 2.541 1.838.5.614.79 1.427.653 2.22-.142.896-.747 1.638-1.438 2.19-1.033.818-2.268 1.334-3.513 1.736-2.467.775-5.06 1.067-7.637 1.141h-1.312c-1.8-.052-3.602-.206-5.369-.564-1.494-.303-2.976-.726-4.345-1.406-.864-.44-1.703-.993-2.296-1.774-.441-.575-.693-1.315-.597-2.044.094-.795.573-1.488 1.15-2.018.843-.77 1.881-1.283 2.939-1.689 1.412-.536 2.894-.864 4.384-1.096-1.626-2.103-3.31-4.16-4.861-6.32-1.449-2.036-2.761-4.241-3.303-6.708-.597-2.71-.394-5.61.681-8.178a13.36 13.36 0 015.284-6.21A13.318 13.318 0 0113.73 0zM5.997 4.732a11.709 11.709 0 00-3.55 6.591c-.351 2.136-.147 4.368.635 6.389.535 1.402 1.317 2.693 2.16 3.928 1.465 2.112 3.1 4.096 4.672 6.125a179.79 179.79 0 014.087 5.42c1.815-2.51 3.726-4.951 5.636-7.391 1.265-1.615 2.53-3.234 3.639-4.962 1.09-1.706 1.981-3.582 2.29-5.6.357-2.239.084-4.584-.839-6.66a11.8 11.8 0 00-5.074-5.55 11.666 11.666 0 00-6.594-1.42 11.699 11.699 0 00-7.062 3.13zM4.912 32.167c-.792.35-1.584.764-2.185 1.402-.32.34-.558.832-.39 1.3.226.63.792 1.052 1.336 1.397 1.438.866 3.082 1.309 4.712 1.649a30.36 30.36 0 0011.395-.031c1.573-.341 3.157-.777 4.546-1.616.548-.35 1.122-.777 1.341-1.416.17-.504-.12-1.013-.468-1.36-.727-.722-1.676-1.16-2.617-1.53-1.571-.587-3.227-.919-4.89-1.122a162.904 162.904 0 00-2.808 3.803c-.182.242-.343.545-.657.632-.347.116-.732-.06-.918-.365-.968-1.379-1.982-2.725-2.994-4.072-1.843.23-3.685.606-5.403 1.33z" fill="#222"/><path d="M13.798 3.176c.54-.23 1.176.31 1.037.88-.084.567-.852.835-1.271.442-.45-.35-.31-1.147.234-1.322zm3.118.534a.782.782 0 01.487.009 10.104 10.104 0 015.257 4.26 10.119 10.119 0 011.492 5.387c.01.475-.488.867-.948.746-.375-.077-.64-.452-.61-.83a8.613 8.613 0 00-2.136-5.67A8.57 8.57 0 0016.915 5.2a.79.79 0 01-.543-.658.785.785 0 01.544-.832zm-3.738 4.164a5.473 5.473 0 015.758 3.056 5.463 5.463 0 01-1.653 6.72c-1.626 1.255-3.976 1.452-5.79.49a5.504 5.504 0 01-2.571-2.83 5.475 5.475 0 01-.085-3.834c.641-1.878 2.376-3.321 4.341-3.602zm.162 1.56c-1.495.239-2.778 1.432-3.128 2.904a3.906 3.906 0 003.473 4.834 3.908 3.908 0 004.188-4.372 3.904 3.904 0 00-4.533-3.366z" fill="#222"/><path d="M5.997 4.732a11.695 11.695 0 017.062-3.13c2.274-.186 4.6.307 6.594 1.42a11.8 11.8 0 015.074 5.55c.923 2.076 1.197 4.42.839 6.66-.309 2.018-1.2 3.894-2.29 5.6-1.108 1.728-2.374 3.347-3.639 4.962-1.91 2.44-3.82 4.88-5.636 7.392a179.63 179.63 0 00-4.087-5.421c-1.573-2.03-3.207-4.014-4.671-6.125-.844-1.235-1.626-2.526-2.161-3.928-.782-2.021-.986-4.253-.635-6.389a11.709 11.709 0 013.55-6.591zm7.802-1.556c-.544.175-.686.972-.235 1.322.419.393 1.187.125 1.271-.443.14-.568-.498-1.108-1.037-.88zm3.117.533a.785.785 0 00-.543.832.79.79 0 00.542.658 8.57 8.57 0 013.543 2.413 8.612 8.612 0 012.136 5.67c-.03.378.236.753.61.83.46.122.958-.27.948-.746a10.119 10.119 0 00-1.492-5.387 10.105 10.105 0 00-5.257-4.26.782.782 0 00-.487-.01zm-3.738 4.165c-1.965.28-3.7 1.724-4.34 3.602a5.475 5.475 0 00.084 3.833 5.504 5.504 0 002.572 2.83c1.813.963 4.163.766 5.789-.488a5.463 5.463 0 00-.987-9.331 5.473 5.473 0 00-3.118-.446z" fill="#00AFEA"/><path d="M4.912 32.167c1.718-.723 3.56-1.1 5.403-1.329 1.012 1.347 2.026 2.693 2.994 4.072.186.304.57.482.918.365.314-.087.475-.39.657-.632a162.904 162.904 0 012.809-3.803c1.662.203 3.318.535 4.889 1.122.941.37 1.89.808 2.617 1.53.348.347.638.857.468 1.36-.22.64-.793 1.066-1.341 1.416-1.389.84-2.973 1.275-4.546 1.616-3.75.73-7.642.74-11.395.03-1.63-.339-3.274-.782-4.712-1.648-.544-.345-1.11-.767-1.336-1.396-.168-.47.07-.961.39-1.301.601-.638 1.393-1.053 2.185-1.402z" fill="#F89C1C"/></svg>