<svg width="500" height="500" fill="none" xmlns="http://www.w3.org/2000/svg"><path fill-rule="evenodd" clip-rule="evenodd" d="M323.581 250c0 40.637-32.944 73.581-73.581 73.581S176.419 290.637 176.419 250s32.944-73.581 73.581-73.581 73.581 32.944 73.581 73.581zM250 325c41.421 0 75-33.579 75-75s-33.579-75-75-75-75 33.579-75 75 33.579 75 75 75zm-74.014-75c0 25.548 12.944 48.073 32.632 61.374-19.688-13.301-32.632-35.826-32.632-61.374zm61.255 72.918A74.407 74.407 0 00250 324.014c10.219 0 19.955-2.071 28.81-5.816-8.855 3.745-18.591 5.816-28.81 5.816-4.351 0-8.614-.375-12.759-1.096zm-28.932-11.086c-19.835-13.4-32.875-36.093-32.875-61.832 0-41.182 33.384-74.566 74.566-74.566 20.73 0 39.485 8.459 53 22.115-13.515-13.656-32.27-22.115-53-22.115-41.182 0-74.566 33.384-74.566 74.566 0 25.739 13.04 48.432 32.875 61.832z" fill="url(#paint0_linear_93022_11)"/><path fill-rule="evenodd" clip-rule="evenodd" d="M250 374.074c68.524 0 124.074-55.55 124.074-124.074S318.524 125.926 250 125.926 125.926 181.476 125.926 250 181.476 374.074 250 374.074zm0 .926c69.036 0 125-55.964 125-125s-55.964-125-125-125-125 55.964-125 125 55.964 125 125 125z" fill="#00AFEA"/><path fill-rule="evenodd" clip-rule="evenodd" d="M250 436.458c102.978 0 186.458-83.48 186.458-186.458S352.978 63.542 250 63.542 63.542 147.022 63.542 250 147.022 436.458 250 436.458zm0 1.042c103.553 0 187.5-83.947 187.5-187.5S353.553 62.5 250 62.5 62.5 146.447 62.5 250 146.447 437.5 250 437.5z" fill="#65CEF1"/><path fill-rule="evenodd" clip-rule="evenodd" d="M250 498.889c137.458 0 248.889-111.431 248.889-248.889C498.889 112.542 387.458 1.111 250 1.111 112.542 1.111 1.111 112.542 1.111 250c0 137.458 111.431 248.889 248.889 248.889zm0 1.111c138.071 0 250-111.929 250-250S388.071 0 250 0 0 111.929 0 250s111.929 250 250 250z" fill="#97DDF5"/><defs><linearGradient id="paint0_linear_93022_11" x1="175.434" y1="250" x2="250" y2="250" gradientUnits="userSpaceOnUse"><stop stop-color="#00749B"/><stop offset="1" stop-color="#00AFEA" stop-opacity="0"/></linearGradient></defs></svg>