<svg width="500" height="500" viewBox="0 0 500 500" fill="none" xmlns="http://www.w3.org/2000/svg">
<path fill-rule="evenodd" clip-rule="evenodd" d="M323.581 250C323.581 290.637 290.637 323.581 250 323.581C209.363 323.581 176.419 290.637 176.419 250C176.419 209.363 209.363 176.419 250 176.419C290.637 176.419 323.581 209.363 323.581 250ZM250 325C291.421 325 325 291.421 325 250C325 208.579 291.421 175 250 175C208.579 175 175 208.579 175 250C175 291.421 208.579 325 250 325ZM175.986 250C175.986 275.548 188.93 298.073 208.618 311.374C188.93 298.073 175.986 275.548 175.986 250C175.986 250 175.986 250 175.986 250ZM237.241 322.918C241.386 323.639 245.649 324.014 250 324.014C260.219 324.014 269.955 321.943 278.81 318.198C269.955 321.943 260.219 324.014 250 324.014C245.649 324.014 241.386 323.639 237.241 322.918ZM208.309 311.832C188.474 298.432 175.434 275.739 175.434 250C175.434 208.818 208.818 175.434 250 175.434C270.73 175.434 289.485 183.893 303 197.549C289.485 183.893 270.73 175.434 250 175.434C208.818 175.434 175.434 208.818 175.434 250C175.434 275.739 188.474 298.432 208.309 311.832Z" fill="url(#paint0_linear_93022_11)"/>
<path fill-rule="evenodd" clip-rule="evenodd" d="M250 374.074C318.524 374.074 374.074 318.524 374.074 250C374.074 181.476 318.524 125.926 250 125.926C181.476 125.926 125.926 181.476 125.926 250C125.926 318.524 181.476 374.074 250 374.074ZM250 375C319.036 375 375 319.036 375 250C375 180.964 319.036 125 250 125C180.964 125 125 180.964 125 250C125 319.036 180.964 375 250 375Z" fill="#00AFEA"/>
<path fill-rule="evenodd" clip-rule="evenodd" d="M250 436.458C352.978 436.458 436.458 352.978 436.458 250C436.458 147.022 352.978 63.5417 250 63.5417C147.022 63.5417 63.5417 147.022 63.5417 250C63.5417 352.978 147.022 436.458 250 436.458ZM250 437.5C353.553 437.5 437.5 353.553 437.5 250C437.5 146.447 353.553 62.5 250 62.5C146.447 62.5 62.5 146.447 62.5 250C62.5 353.553 146.447 437.5 250 437.5Z" fill="#65CEF1"/>
<path fill-rule="evenodd" clip-rule="evenodd" d="M250 498.889C387.458 498.889 498.889 387.458 498.889 250C498.889 112.542 387.458 1.11111 250 1.11111C112.542 1.11111 1.11111 112.542 1.11111 250C1.11111 387.458 112.542 498.889 250 498.889ZM250 500C388.071 500 500 388.071 500 250C500 111.929 388.071 0 250 0C111.929 0 0 111.929 0 250C0 388.071 111.929 500 250 500Z" fill="#97DDF5"/>
<defs>
<linearGradient id="paint0_linear_93022_11" x1="175.434" y1="250" x2="250" y2="250" gradientUnits="userSpaceOnUse">
<stop stop-color="#00749B"/>
<stop offset="1" stop-color="#00AFEA" stop-opacity="0"/>
</linearGradient>
</defs>
</svg>
