<svg width="50" height="50" fill="none" xmlns="http://www.w3.org/2000/svg"><path d="M6.25 25c0 10.355 8.395 18.75 18.75 18.75S43.75 35.355 43.75 25 35.355 6.25 25 6.25 6.25 14.645 6.25 25z" fill="#00AFEA"/><path fill-rule="evenodd" clip-rule="evenodd" d="M0 25c0 13.807 11.193 25 25 25s25-11.193 25-25S38.807 0 25 0 0 11.193 0 25zm25 18.75C14.645 43.75 6.25 35.355 6.25 25S14.645 6.25 25 6.25 43.75 14.645 43.75 25 35.355 43.75 25 43.75z" fill="#FCFCFC"/><path fill-rule="evenodd" clip-rule="evenodd" d="M20.928 18.37l-5.966 5.967a.937.937 0 000 1.326l5.966 5.966a.937.937 0 101.326-1.326l-4.366-4.366h16.487a.937.937 0 100-1.875H17.888l4.366-4.365a.937.937 0 00-1.326-1.326z" fill="#222"/></svg>