<svg width="92" height="92" fill="none" xmlns="http://www.w3.org/2000/svg"><path d="M87 46a41 41 0 01-61.5 35.507" stroke="#00AFEA" stroke-width="10"/><path d="M25.5 81.507a41 41 0 010-71.014" stroke="#DDD" stroke-width="10"/><path d="M45.849 26.035a.81.81 0 01.887.3c.589.77 1.11 1.588 1.608 2.42.674 1.171 1.328 2.375 1.69 3.685.31 1.066.075 2.247-.53 3.167a4.092 4.092 0 01-6.094.855c-1.177-.997-1.729-2.71-1.233-4.189.613-1.924 1.687-3.66 2.805-5.326.264-.32.441-.774.867-.912zm-12.973 1.428a.814.814 0 01.88.316c.588.772 1.111 1.59 1.607 2.424.67 1.165 1.32 2.362 1.68 3.665.334 1.144.042 2.42-.664 3.366a4.092 4.092 0 01-5.995.628c-1.02-.891-1.57-2.323-1.317-3.664.183-.885.555-1.717.953-2.525a27.125 27.125 0 012.354-3.823c.122-.176.29-.332.502-.387zm25.939.013a.817.817 0 01.935.32c.834 1.11 1.56 2.3 2.215 3.523.433.837.835 1.698 1.074 2.612.31 1.14.004 2.397-.7 3.33a4.075 4.075 0 01-2.93 1.613 4.083 4.083 0 01-3.024-.994c-1.093-.939-1.656-2.502-1.288-3.912.227-.897.621-1.742 1.041-2.563a28.134 28.134 0 012.233-3.578.907.907 0 01.444-.351zM35.964 43.312a4.291 4.291 0 013.421-1.67c4.568 0 9.136-.004 13.703.001 1.533.003 3.016.91 3.72 2.27.583 1.15 1.154 2.308 1.733 3.46 1.139.001 2.277-.003 3.415.001.761-.02 1.443.667 1.428 1.426.021.728-.605 1.402-1.333 1.43-.51.02-1.02 0-1.53.01.665.887 1.332 1.773 1.996 2.66.379.508.648 1.097.775 1.717.136.621.084 1.26.094 1.89-.008.839.016 1.677-.012 2.514-.05.948-.627 1.808-1.427 2.298.012.605.006 1.209.005 1.814a2.874 2.874 0 01-.887 2.07 2.87 2.87 0 01-1.973.793c-.925.005-1.85 0-2.776.002-1.133.044-2.249-.648-2.705-1.688-.386-.817-.217-1.74-.254-2.61H39.029c-.036.847.123 1.738-.224 2.54-.415 1.016-1.455 1.736-2.553 1.754-1.045.004-2.091.013-3.136-.005-1.301-.057-2.465-1.118-2.646-2.407-.087-.765.002-1.537-.053-2.303-.867-.482-1.417-1.457-1.414-2.445-.005-1.104-.002-2.208-.002-3.312a4.35 4.35 0 01.869-2.622c.663-.888 1.33-1.774 1.995-2.661-.51-.008-1.018.01-1.527-.008-.726-.03-1.357-.698-1.337-1.426-.019-.728.605-1.4 1.334-1.426 1.17-.016 2.34-.002 3.51-.007.469-.932.934-1.867 1.401-2.8.218-.431.417-.878.718-1.26zm2.103 2.028c-.657 1.31-1.312 2.621-1.967 3.933-.08.157-.17.308-.262.458.364.252.755.53 1.221.505 6.09.003 12.179.003 18.268 0 .466.023.86-.248 1.221-.505-.672-1.2-1.24-2.456-1.871-3.678-.25-.451-.401-1.002-.857-1.298-.29-.208-.653-.262-1.001-.25-4.477.004-8.953-.001-13.43.003a1.446 1.446 0 00-1.322.831zm-3.835 9.255a2.16 2.16 0 00-1.489 1.276c-.294.7-.17 1.551.304 2.142a2.151 2.151 0 001.963.799 2.153 2.153 0 001.774-1.505 2.153 2.153 0 00-.541-2.144 2.163 2.163 0 00-2.011-.568zm22.927 0a2.159 2.159 0 00-1.493 1.278 2.147 2.147 0 002.266 2.939 2.156 2.156 0 001.81-1.63 2.156 2.156 0 00-.617-2.06 2.158 2.158 0 00-1.966-.528z" fill="#00AFEA"/><path d="M25.5 10.493A41 41 0 0187 46" stroke="#00AFEA" stroke-width="10"/></svg>