<svg width="70" height="70" fill="none" xmlns="http://www.w3.org/2000/svg"><path d="M58.004.727c1.542-.33 3.227.096 4.41 1.142 1.66 1.394 2.244 3.891 1.365 5.875a5.151 5.151 0 01-2.949 2.804 5.114 5.114 0 01-3.951-.175 5.14 5.14 0 01-2.715-3.117 5.13 5.13 0 01.305-3.79A5.165 5.165 0 0158.004.727zm.152 2.074c-1.396.406-2.365 1.894-2.146 3.335.17 1.64 1.833 2.916 3.461 2.65 1.68-.18 2.967-1.925 2.618-3.584-.26-1.762-2.243-2.978-3.933-2.4zm-16.614.04c.261-.432.722-.788 1.25-.756.52.005.946.384 1.199.812.553.91 1.097 1.83 1.646 2.743 1.055.264 2.113.514 3.166.793.49.114.974.441 1.098.954.138.465-.071.945-.37 1.295-.7.849-1.405 1.69-2.106 2.537.068 1.138.184 2.272.258 3.41.047.493-.142 1.04-.588 1.297-.377.244-.86.207-1.266.056-1.02-.382-2.005-.862-3.032-1.227-.626.121-1.19.47-1.79.685-.672.238-1.31.667-2.045.66-.677-.018-1.207-.675-1.155-1.337.061-1.184.2-2.363.266-3.545-.697-.836-1.389-1.675-2.087-2.509-.308-.36-.533-.849-.39-1.328.122-.489.573-.814 1.043-.933 1.068-.277 2.143-.528 3.21-.802.575-.93 1.116-1.878 1.693-2.805zm1.204 1.969c-.426.698-.83 1.41-1.27 2.101a1.558 1.558 0 01-.925.667c-.777.218-1.567.383-2.348.59.568.743 1.27 1.391 1.737 2.206.388 1.056.013 2.194.004 3.283.73-.274 1.431-.63 2.17-.878 1.233-.336 2.328.494 3.44.88-.053-.728-.127-1.453-.169-2.18-.034-.526.067-1.082.409-1.497.492-.611 1.002-1.207 1.498-1.816-.798-.202-1.6-.39-2.395-.603-.413-.108-.745-.406-.956-.77-.404-.657-.79-1.327-1.195-1.983zm22.888 6.262c1.002-.465 2.048-.855 3.13-1.087.557-.154 1.08.27 1.236.787v.347c-.093.432-.418.79-.858.873-1.26.32-2.491.782-3.616 1.44-3.001 1.715-5.174 4.64-6.37 7.847-.187.468-.276.97-.483 1.431-.296.579-1.173.681-1.609.205-.328-.307-.343-.798-.206-1.2 1.323-4.527 4.451-8.63 8.776-10.643zm-42.721 4.994c1.968-.918 4.376-.815 6.257.276 1.774 1 3.02 2.835 3.36 4.836.407 2.256-.197 4.562-1.193 6.585l4.99-2.779c.617-.342 1.234-.759 1.958-.819 1.188-.143 2.415.494 2.985 1.544.718 1.29 1.452 2.571 2.15 3.872.721 1.387.125 3.25-1.252 3.98-4.645 2.6-9.302 5.181-13.948 7.781 8.414.005 16.826-.001 25.24.003 1.36-.052 2.571 1.184 2.51 2.542.003 7.246 0 14.49.001 21.737.017.891-.281 1.787-.864 2.466-.698.842-1.79 1.315-2.88 1.299-11.397-.001-22.797.005-34.195-.004-1.883.034-3.6-1.599-3.629-3.487-.02-5.616-.001-11.234-.01-16.85-2.036 1.132-4.07 2.267-6.106 3.4-.572.325-1.17.67-1.843.699A3.049 3.049 0 013.59 51.64a356.61 356.61 0 01-2.153-3.867c-.732-1.344-.217-3.183 1.102-3.956 2.011-1.141 4.041-2.249 6.057-3.383-2.184-.22-4.412-.863-6.112-2.308A7.09 7.09 0 010 33.254v-.745c.113-2.04 1.155-4.007 2.812-5.209 1.668-1.265 3.865-1.65 5.91-1.369 2.883.389 5.51 1.815 7.83 3.51.412-.228.824-.46 1.235-.692-.24-2.953-.085-6.054 1.24-8.758.208-.394.394-.882.853-1.04.557-.226 1.244.155 1.352.745.113.504-.248.935-.436 1.372-.944 2.043-1.111 4.347-1.03 6.568.853-.527 1.857-.78 2.856-.648.35-1.475.863-2.927 1.646-4.231.27-.51.988-.69 1.46-.352.469.294.588.967.281 1.422a13.097 13.097 0 00-1.468 4.039c.818.732 1.222 1.772 1.776 2.692.498-.316 1.122-.49 1.474-.995 1.11-1.499 2.072-3.145 2.554-4.96.341-1.306.404-2.734-.092-4.01-.493-1.312-1.576-2.39-2.91-2.836-1.153-.413-2.448-.323-3.568.157-.53.26-1.23-.029-1.402-.599a1.017 1.017 0 01.54-1.25zM37.918 26.44c-3.53 1.983-7.078 3.928-10.6 5.923 1.02 1.808 2.022 3.626 3.038 5.436 3.583-1.995 7.165-3.994 10.748-5.991.483-.224.73-.853.47-1.332-.618-1.156-1.279-2.29-1.906-3.44-.173-.304-.35-.659-.707-.773-.356-.154-.734-.008-1.043.177zM5.89 28.081c-1.318.324-2.52 1.17-3.195 2.36-.786 1.342-.864 3.081-.161 4.476.6 1.26 1.758 2.175 3.025 2.707 1.998.83 4.213.93 6.344.757.602.017 1.064-.42 1.575-.669-.498-.976-1.203-1.88-1.362-2.992-1.356-.477-2.78-.703-4.202-.873-.524-.038-.966-.51-.944-1.039-.005-.564.53-1.066 1.095-.999 1.47.14 2.932.406 4.343.846.418-.955 1.227-1.668 2.157-2.108-1.5-1.018-3.125-1.89-4.888-2.352-1.23-.32-2.544-.429-3.787-.114zm15.165 1.199c-1.986 1.104-3.974 2.21-5.955 3.32-.804.427-1.187 1.492-.808 2.325.298.61.656 1.192.981 1.79l9.25-5.158c-.359-.61-.658-1.255-1.06-1.837-.54-.73-1.644-.926-2.408-.44zm-4.782 9.223c1.006 1.82 2.024 3.634 3.035 5.45 3.084-1.718 6.171-3.43 9.253-5.156l-3.037-5.446c-3.085 1.716-6.166 3.439-9.251 5.152zM3.69 45.52c-.496.236-.691.901-.403 1.37a490.87 490.87 0 002.063 3.699c.26.514.968.659 1.437.344 3.58-1.985 7.153-3.985 10.728-5.978-1.009-1.819-2.023-3.633-3.036-5.449-3.596 2.006-7.196 4.003-10.789 6.014zm20.842-2.108c-2.71 1.467-5.391 2.996-8.087 4.49.003 5.953-.007 11.906.004 17.858-.012.855.76 1.599 1.612 1.574 3.732.01 7.465.001 11.197.004.007-3.31-.003-6.62.004-9.93-.033-.46.264-.915.706-1.05.664-.246 1.415.354 1.341 1.054.007 3.309-.003 6.617.004 9.928 2.58-.002 5.158 0 7.738-.002.002-7.982.002-15.962 0-23.943-2.58-.002-5.158 0-7.738 0-.005 2.99.001 5.981-.003 8.972.044.504-.307 1.012-.812 1.106-.589.148-1.232-.344-1.229-.954-.022-3.04 0-6.082-.01-9.124-1.576.012-3.154-.027-4.727.017zm16.572-.015v23.94c3.709.002 7.42.004 11.128-.002.584.018 1.172-.276 1.463-.79.296-.481.214-1.069.226-1.606-.003-6.973-.002-13.944-.002-20.917.052-.3-.135-.658-.477-.622-4.112-.01-8.226-.005-12.338-.003z" fill="#222"/><path d="M50.37 17.305c.605-.267 1.356.211 1.389.868.24 2.55.268 5.121.097 7.676-.185 2.392-.528 4.791-1.31 7.067-.53 1.523-1.26 3.006-2.347 4.211-.245.296-.651.451-1.027.357a1.033 1.033 0 01-.79-1.122c.024-.302.239-.535.42-.758 1.107-1.293 1.736-2.915 2.18-4.539 1.034-4.11 1.07-8.408.748-12.615-.08-.471.183-.98.64-1.145zm11.264 9.055c.268-.424.741-.753 1.26-.7.54.027.944.447 1.201.884.536.887 1.064 1.779 1.597 2.667.98.246 1.962.482 2.94.729.621.116 1.249.488 1.368 1.158v.289c-.069.32-.212.62-.42.873-.697.859-1.427 1.69-2.11 2.56.088 1.063.176 2.127.26 3.192.043.465-.01.994-.376 1.326-.335.342-.864.407-1.307.267-1.112-.36-2.145-.957-3.267-1.279-.639.18-1.228.505-1.847.737-.614.231-1.206.596-1.877.61-.655.004-1.202-.597-1.19-1.243.018-1.199.218-2.39.245-3.589-.665-.992-1.541-1.834-2.245-2.802-.275-.378-.351-.907-.123-1.325.197-.39.607-.608 1.016-.712.93-.24 1.864-.461 2.797-.692.146-.055.345-.066.425-.223.567-.898 1.08-1.832 1.653-2.728zm1.17 2.02c-.414.675-.809 1.362-1.226 2.033-.206.34-.525.611-.912.716-.797.225-1.605.407-2.407.609.504.625 1.039 1.225 1.53 1.86.31.394.401.91.378 1.4-.038.744-.122 1.488-.17 2.233.762-.287 1.49-.671 2.272-.905 1.201-.268 2.254.532 3.34.904-.051-.7-.12-1.397-.167-2.097-.041-.543.04-1.127.392-1.562.494-.619 1.012-1.218 1.51-1.832-.754-.2-1.517-.369-2.271-.569-.394-.094-.76-.314-.98-.661-.45-.698-.854-1.423-1.289-2.129z" fill="#222"/></svg>