<svg width="300" height="300" fill="none" xmlns="http://www.w3.org/2000/svg"><path fill-rule="evenodd" clip-rule="evenodd" d="M150 199c27.062 0 49-21.938 49-49s-21.938-49-49-49-49 21.938-49 49 21.938 49 49 49zm0 1c27.614 0 50-22.386 50-50s-22.386-50-50-50-50 22.386-50 50 22.386 50 50 50z" fill="#00AFEA"/><path fill-rule="evenodd" clip-rule="evenodd" d="M150 249c54.676 0 99-44.324 99-99s-44.324-99-99-99-99 44.324-99 99 44.324 99 99 99zm0 1c55.228 0 100-44.772 100-100S205.228 50 150 50 50 94.772 50 150s44.772 100 100 100z" fill="#65CEF1"/><path fill-rule="evenodd" clip-rule="evenodd" d="M150 299c82.29 0 149-66.71 149-149S232.29 1 150 1 1 67.71 1 150s66.71 149 149 149zm0 1c82.843 0 150-67.157 150-150S232.843 0 150 0 0 67.157 0 150s67.157 150 150 150z" fill="#97DDF5"/></svg>