<svg width="42" height="54" fill="none" xmlns="http://www.w3.org/2000/svg"><path d="M17.42.856c-.02-.452.38-.863.832-.85 1.555-.008 3.109-.009 4.662 0 .445-.008.834.398.821.842.012 1.262 0 2.525.005 3.787.605.005 1.21-.007 1.814.003a.835.835 0 01.812.577c.396 1.119.778 2.244 1.17 3.364.959.01 1.917-.016 2.875.013 1.296.079 2.413 1.224 2.464 2.521.018.95.013 1.9.002 2.85.006.509-.5.879-.985.822-7.43-.003-14.863.004-22.294-.004-.455.022-.888-.361-.88-.825-.008-.948-.014-1.897.004-2.846.05-1.268 1.12-2.39 2.382-2.511.843-.044 1.688-.007 2.532-.019.393-1.12.774-2.246 1.17-3.365a.832.832 0 01.813-.577c.599-.01 1.198.001 1.796-.002.006-1.26-.007-2.52.005-3.78zm1.687.836c-.002.981-.002 1.963 0 2.943h2.941V1.692h-2.94zm-2.895 4.633c-.262.75-.521 1.503-.781 2.254h10.31c-.258-.751-.515-1.503-.777-2.254-2.917.002-5.835 0-8.752 0zm-5.803 4.893c-.023.622 0 1.245-.008 1.868 6.93.002 13.86.003 20.792 0-.01-.624.015-1.248-.01-1.871-.012-.552-.541-.991-1.083-.951-6.2-.002-12.402-.002-18.604 0-.544-.042-1.076.4-1.087.954zm.235 4.812h1.69v3.318h-1.691c0-1.106-.001-2.212.001-3.318zm9.308 0h1.69v3.318h-1.69V16.03zm9.31 0h1.69v3.317l-1.69.001V16.03zM8.831 21.004c.505-.222 1.07-.173 1.606-.178 7.117.002 14.234 0 21.35.001.641-.02 1.289.22 1.73.691.36.364.52.861.68 1.334.858 2.484 1.726 4.966 2.584 7.45.127.368.366.681.576 1.005.985 1.518 1.969 3.038 2.954 4.555.757 1.068 1.25 2.34 1.268 3.658.012 1.164.007 2.33.002 3.494a6.285 6.285 0 01-1.025 3.387c-.506.785-1.224 1.394-1.866 2.062-.009 1.351.007 2.704-.007 4.056.002.65-.442 1.235-1.032 1.481h-7.687c-.584-.246-1.032-.824-1.03-1.47-.015-1.191 0-2.383-.007-3.572-5.42 0-10.84 0-16.259-.002-.007 1.192.01 2.383-.006 3.573-.002.647-.448 1.226-1.033 1.471h-7.68c-.588-.245-1.04-.826-1.037-1.477-.015-1.356.003-2.713-.008-4.068-.891-.886-1.863-1.755-2.351-2.945-.79-1.675-.48-3.565-.544-5.352-.06-1.343.25-2.715.989-3.848a2328.33 2328.33 0 013.571-5.51c.1-.157.182-.325.245-.5.914-2.641 1.832-5.28 2.75-7.92.203-.611.665-1.135 1.267-1.377zm.336 1.909c-.837 2.39-1.66 4.784-2.49 7.175h28.245c-.833-2.392-1.656-4.788-2.495-7.177-.075-.275-.36-.422-.63-.393H9.804c-.276-.032-.56.12-.638.395zM5.946 31.78c-.504.78-1.01 1.557-1.514 2.337 1.758.002 3.516-.004 5.274 0a.875.875 0 01.824.461c.637 1.053 1.281 2.102 1.91 3.16.443.756.202 1.813-.523 2.302-.421.318-.967.348-1.473.333-2.917-.004-5.832-.002-8.748-.001.003.88-.005 1.763.003 2.645.008.773.214 1.545.6 2.217.45.801 1.181 1.383 1.807 2.039h9.977c.003-1.668-.005-3.336.003-5.003-.024-.484.421-.903.902-.863 3.874-.002 7.747-.002 11.621 0 .482-.041.928.38.904.864.009 1.665 0 3.33.005 4.994l9.975.001c.392-.393.79-.777 1.172-1.18a4.58 4.58 0 001.226-3.07c.01-.88 0-1.763.004-2.644-3.021-.002-6.043 0-9.064-.001-.481.011-.973-.136-1.326-.471-.596-.528-.753-1.475-.349-2.163.63-1.06 1.274-2.11 1.912-3.164a.879.879 0 01.815-.455c1.76-.005 3.52 0 5.281-.002-.503-.78-1.01-1.556-1.512-2.335-9.902-.005-19.804-.003-29.706-.001zm-4.128 6.9c2.913.004 5.826-.004 8.737.004.14-.015.317.034.413-.099-.538-.937-1.115-1.852-1.671-2.778H3.335c-.573.917-1.292 1.786-1.517 2.872zm30.48-2.873c-.556.926-1.131 1.84-1.671 2.775.094.14.27.088.413.102 2.911-.009 5.824 0 8.736-.005-.228-1.085-.942-1.954-1.513-2.872h-5.965zm-16.524 11.46c3.35.001 6.701-.007 10.051.006.002-1.393.002-2.784 0-4.177h-10.05c-.003 1.39-.002 2.78 0 4.17zm-11.177 1.69v3.45h6.379v-3.45c-2.126 0-4.253-.003-6.38 0zm26.022 0c-.002 1.149 0 2.3 0 3.45h6.378v-3.45c-2.127-.002-4.252-.002-6.378 0z" fill="#00AFEA"/></svg>