<svg width="54" height="50" fill="none" xmlns="http://www.w3.org/2000/svg"><path d="M48.567.128c1.488-.499 3.23.514 3.544 2.047.39 1.478-.664 3.117-2.167 3.383-1.4.33-2.927-.62-3.272-2.01-.417-1.41.481-3.027 1.895-3.42zm.416 1.718c-.71.255-.88 1.306-.286 1.771.565.528 1.604.17 1.717-.597.193-.783-.701-1.518-1.43-1.174zM9.08 1.875a4.8 4.8 0 014.346-.625c.958.322 1.783.974 2.373 1.79 1.16-.264 2.443.035 3.32.85.974.859 1.39 2.249 1.12 3.51 3.998-.005 7.995.003 11.991-.003.125-1.62.78-3.206 1.881-4.407 1.207-1.2 2.936-1.835 4.632-1.74 1.436.003 2.888.47 3.976 1.425 1.233 1.057 2 2.574 2.332 4.147a5.369 5.369 0 012.259 2.02c1.363-.055 2.742.385 3.78 1.277 1.03.867 1.803 2.098 1.947 3.453a5.81 5.81 0 01-.74 3.626c.09.387.132.785.12 1.183-.017.59.048 1.19-.085 1.77a3.438 3.438 0 01-2.153 2.453c-.793.315-1.66.177-2.49.207.804 1.068 1.606 2.137 2.413 3.202.207.274.464.56.44.93.005 5.304.003 10.609.001 15.912.038.451-.308.809-.716.934-.063 1.166.158 2.38-.247 3.507-.533 1.541-2.067 2.669-3.702 2.698-1.896.007-3.793.01-5.689-.002-1.878-.041-3.584-1.55-3.857-3.407-.117-.925-.031-1.86-.058-2.79-6.692 0-13.384.002-20.075 0-.058 1.26.19 2.597-.359 3.783-.615 1.416-2.091 2.403-3.638 2.418-1.828.006-3.656 0-5.483.002a4.082 4.082 0 01-2.709-1.043 4.066 4.066 0 01-1.357-2.921c-.015-.75.001-1.499-.008-2.25-.407-.117-.753-.474-.718-.92-.006-5.27 0-10.54-.003-15.81-.014-.261.043-.528.213-.733.88-1.17 1.766-2.337 2.644-3.51-.817-.034-1.663.106-2.448-.175a3.461 3.461 0 01-2.106-2.032c-.344-.881-.187-1.842-.214-2.763.005-1.105.972-2.045 2.062-2.099a6.15 6.15 0 01-1.83-4.6A6.132 6.132 0 012.5 6.62C3.768 5.576 5.46 5.1 7.09 5.284c.147-1.35.875-2.625 1.988-3.409zm2.4.887c-1.433.152-2.631 1.451-2.65 2.895-.027.406.153.867-.114 1.227-.238.367-.732.45-1.121.3-1.518-.463-3.26-.005-4.357 1.14a4.377 4.377 0 00-1.235 3.262 4.372 4.372 0 005.377 4.04c.645-.14 1.224-.472 1.752-.858.341-.259.796-.148 1.117.086 1.25.812 3.063.482 3.962-.703.91-1.104.859-2.849-.112-3.9-.32-.392-.942-.607-.942-1.192-.034-.58.55-.851.915-1.186.338-.32.903-.265 1.212.068a1.969 1.969 0 002.072.459c.83-.292 1.376-1.209 1.227-2.078-.117-.907-.966-1.641-1.88-1.625-.427-.037-.804.197-1.207.286-.41.062-.778-.223-.934-.585-.551-1.123-1.843-1.809-3.081-1.636zm24.68.855c-1.33.758-1.992 2.31-2.155 3.775 2.164.004 4.33-.007 6.495.004 1.616.002 3.131 1.193 3.513 2.763.453 1.863.892 3.728 1.339 5.592 1.566.001 3.133.002 4.7-.001.322-.005.64.044.954.116.378-.884.465-1.914.121-2.823-.469-1.152-1.498-2.093-2.723-2.36-.504-.125-1.025-.075-1.535-.024-.396.055-.748-.23-.893-.581a3.458 3.458 0 00-1.96-1.78.9.9 0 01-.635-.77c-.2-1.262-.727-2.51-1.669-3.398-.762-.724-1.811-1.096-2.854-1.12-.932-.065-1.892.12-2.697.607zm-19.957 6.635c.516 1.129.596 2.454.174 3.625a4.8 4.8 0 01-3.071 2.976c-1.195.387-2.532.262-3.649-.306a10.71 10.71 0 01-1.056.527c-.315 1.327-.633 2.653-.947 3.98 12.387 0 24.773.002 37.159 0-.829-3.466-1.651-6.934-2.486-10.4-.192-.872-1.036-1.525-1.927-1.505-7.032-.007-14.063.005-21.094-.005-.808.806-1.963 1.242-3.103 1.108zM1.771 17.943c.01.76-.118 1.58.25 2.281.227.441.658.84 1.183.828.88.01 1.763 0 2.644.003.285-1.182.565-2.365.85-3.546-1.498 0-2.996-.007-4.492.003a.405.405 0 00-.435.431zm44-.434c.284 1.181.565 2.364.849 3.546.85-.003 1.7.004 2.55 0 .56.025 1.026-.398 1.254-.877.339-.69.216-1.484.227-2.226.03-.267-.22-.48-.477-.442-1.467-.006-2.934-.001-4.402-.001zM6.974 22.812c-.842 1.13-1.697 2.252-2.54 3.382 1.693.193 3.388.366 5.079.566.712.089 1.36.54 1.688 1.18.915 1.76 1.825 3.522 2.733 5.286.198.349.142.827-.168 1.093-.212.208-.52.236-.8.233-3.096-.004-6.19-.001-9.285-.002v2.67c4.538 0 9.075.002 13.613 0 .564-1.676 1.119-3.354 1.688-5.027a.88.88 0 01.893-.612c4.247 0 8.496-.002 12.743.001a.882.882 0 01.876.627c.564 1.668 1.12 3.34 1.681 5.01 4.54 0 9.078.004 13.616-.002-.002-.887-.001-1.776 0-2.665-3.164-.008-6.328.005-9.493-.007-.634.039-1.108-.717-.79-1.27.9-1.764 1.816-3.52 2.724-5.28a2.27 2.27 0 011.78-1.242c1.674-.187 3.349-.372 5.022-.56-.846-1.127-1.695-2.252-2.54-3.38-12.84-.005-25.68-.003-38.52 0zm-3.289 9.985c2.684-.006 5.368 0 8.051-.003-.671-1.305-1.348-2.608-2.02-3.912-.088-.191-.237-.379-.467-.385-1.853-.223-3.711-.41-5.567-.618 0 1.64-.006 3.278.003 4.918zm39.553-4.3c-.23.002-.39.18-.478.376-.674 1.308-1.352 2.614-2.025 3.921 2.684.002 5.37.002 8.055 0V27.88c-1.851.204-3.7.413-5.552.617zm-22.786 4.84c-.436 1.293-.87 2.588-1.305 3.882 4.725.001 9.45.002 14.177 0-.434-1.294-.869-2.588-1.3-3.882-3.858-.003-7.714 0-11.572 0zM3.681 42.04c1.907 0 3.814.002 5.722 0-.001-1.022.001-2.043-.001-3.064-1.906-.004-3.81.003-5.716-.004-.014 1.023-.003 2.046-.006 3.068zm7.477-3.064c0 1.02.002 2.042 0 3.062 10.05.003 20.102.004 30.153 0-.002-1.02 0-2.042-.001-3.062H11.158zm31.908 3.064c1.908 0 3.816.002 5.724 0-.002-1.022 0-2.044-.001-3.064-1.907-.002-3.813.002-5.718-.002-.011 1.021-.004 2.044-.005 3.066zM4.403 43.797c.01.785-.024 1.572.015 2.358.084 1.108 1.077 2.052 2.187 2.085 1.646.024 3.294.001 4.94.011.493.003 1.008.019 1.468-.186.81-.333 1.393-1.156 1.421-2.033.02-.745.003-1.49.007-2.235H4.403zm33.633 2.238c.028.905.65 1.75 1.498 2.06.378.153.79.157 1.192.157 1.68-.008 3.363.006 5.044-.006 1.15.01 2.2-.955 2.283-2.102.036-.783.005-1.566.015-2.347-3.345-.002-6.691 0-10.037-.001.002.746-.01 1.493.005 2.239z" fill="#00AFEA"/></svg>