<svg width="53" height="54" fill="none" xmlns="http://www.w3.org/2000/svg"><path d="M21.63 3.312a13.353 13.353 0 018.96-3.31 13.327 13.327 0 018.738 3.408c2.773 2.461 4.421 6.124 4.431 9.832.007 9.316 0 18.634.004 27.95.385.02.827-.084 1.16.168.251.177.371.492.356.794.003.923-.002 1.846.001 2.77.387.017.806-.07 1.164.125 2.01 1.015 4.017 2.035 6.026 3.054.314.144.541.469.527.822.005 1.016.003 2.032 0 3.049.035.497-.414.951-.914.913-5.492.003-10.985 0-16.478.002-.507.055-.99-.387-.958-.899-.006-2.041-.002-4.083-.002-6.125-.018-.332.149-.674.448-.831.272-.157.597-.104.895-.1.043-.962-.003-1.924.021-2.885a.861.861 0 01.686-.836c.294-.038.593-.019.891-.02v-27.73c.01-1.558-.494-3.121-1.446-4.358A7.146 7.146 0 0031.252 6.3c-1.78-.211-3.638.27-5.073 1.35-1.374 1.011-2.38 2.52-2.745 4.19-.255 1.093-.157 2.223-.17 3.336.513.005 1.024-.016 1.536.008.457.014.827.448.803.899.005 7.338.001 14.678.001 22.017a8.761 8.761 0 013.011 3.628 8.725 8.725 0 01.37 6.113 8.717 8.717 0 01-3.712 4.823c-2.284 1.444-5.258 1.734-7.77.726-.181-.068-.359-.167-.558-.16-5.342 0-10.686.003-16.028-.001-.505.036-.955-.425-.914-.928C0 45.245 0 38.19.003 31.135c-.005-1.44.234-2.883.726-4.237a12.28 12.28 0 015.49-6.484 12.206 12.206 0 014.241-1.45c1.356-.2 2.73-.11 4.094-.132.005-.919-.005-1.837.003-2.756-.022-.43.32-.844.75-.888.595-.043 1.193.014 1.788-.028-.011-1.33-.06-2.67.17-3.986a13.327 13.327 0 014.364-7.862zm.723 1.706a11.595 11.595 0 00-3.405 6.692c-.17 1.146-.102 2.31-.116 3.464h2.682c.02-1.265-.083-2.55.218-3.792.578-2.652 2.455-4.972 4.915-6.113a8.92 8.92 0 016.779-.318 8.916 8.916 0 015.907 8.4c.003 9.28 0 18.56 0 27.84.895.002 1.79.002 2.683 0V14.558c-.004-.875.026-1.753-.088-2.623a11.586 11.586 0 00-19.576-6.917zm-6.051 11.903v1.912c2.518 0 5.035.001 7.553-.001V16.92h-7.553zm-5.135 3.715a10.46 10.46 0 00-5.203 2.026 10.5 10.5 0 00-4.018 6.36c1.436.01 2.871-.01 4.307.008.98.02 1.82.92 1.787 1.897.001 3.998.004 7.995 0 11.992.021.971-.82 1.856-1.792 1.875-1.498.014-2.997.004-4.497.004-.008.916-.002 1.834-.003 2.75 3.496.003 6.993 0 10.488.002-.638-2.309-.268-4.873 1.017-6.897a8.76 8.76 0 015.333-3.853 8.724 8.724 0 015.27.368v-16.59H13.02c-.619 0-1.238-.007-1.854.058zM1.758 30.77c-.025 4.094-.004 8.19-.01 12.283 1.51-.002 3.018.01 4.526-.006.046-.622.012-1.247.022-1.871-.01-3.464.02-6.928-.014-10.393-1.508-.032-3.016-.006-4.524-.013zm17.936 7.595a6.978 6.978 0 00-6.016 7.072 6.972 6.972 0 0013.31 2.725 6.979 6.979 0 00.328-4.919 7.043 7.043 0 00-3.922-4.38 6.966 6.966 0 00-3.7-.498zM37.75 42.94v1.984c1.923.007 3.848-.01 5.771.008.026-.663.005-1.328.012-1.992-1.928-.002-3.855-.001-5.783 0zm-1.36 3.73c-.003 1.49 0 2.98-.002 4.471 4.955.006 9.91.002 14.863.002.003-.566.002-1.13.002-1.696-1.762-.902-3.533-1.79-5.295-2.69-.23-.134-.505-.078-.756-.088-2.938.003-5.876 0-8.813.001zM1.742 49.304c.01.727.002 1.453.005 2.18h12.79c-.631-.646-1.192-1.367-1.6-2.176-3.731-.025-7.464-.015-11.195-.004z" fill="#00AFEA"/><path d="M15.428 24.686a339.79 339.79 0 011.834 0c0 .612.002 1.223-.001 1.835-.611-.001-1.221-.003-1.831 0-.005-.611-.002-1.223-.002-1.835zm3.67 0c.614.006 1.229-.02 1.842.014-.014.606-.003 1.213-.008 1.819-.615-.01-1.232.026-1.846-.019.024-.604.006-1.21.012-1.814zm1.16 15.995a4.613 4.613 0 014.975 4.202 4.603 4.603 0 01-8.362 3.025 4.612 4.612 0 01-.521-4.29c.601-1.619 2.185-2.809 3.908-2.937zm-.097 1.775A2.87 2.87 0 0018 44.19c-.384.926-.234 2.054.396 2.837.639.836 1.767 1.263 2.798 1.047a2.87 2.87 0 002.188-1.974c.308-.974.027-2.095-.686-2.82a2.866 2.866 0 00-2.536-.825z" fill="#00AFEA"/></svg>