<svg width="20" height="20" fill="none" xmlns="http://www.w3.org/2000/svg"><path d="M3.841 0h.108a2.189 2.189 0 011.42.6c.9.9 1.802 1.796 2.7 2.695.322.317.536.746.572 1.197.06.638-.229 1.306-.761 1.672-.277.203-.631.258-.914.452-.501.328-.851.903-.847 1.508-.007.193.04.382.099.564.198.726.588 1.383 1.033 1.985.811 1.062 1.82 1.986 2.99 2.64.486.25 1.004.505 1.564.506.638-.002 1.274-.336 1.61-.882.169-.275.229-.605.428-.864.439-.616 1.282-.882 2.004-.674.335.09.633.283.876.528.849.846 1.696 1.693 2.545 2.538.213.208.426.428.551.703.316.658.206 1.48-.231 2.058-.126.181-.295.326-.448.484l-1.234 1.23c-.23.227-.449.473-.729.641-.462.29-1.013.4-1.552.419h-.24c-.646-.029-1.28-.169-1.897-.355-1.141-.365-2.217-.911-3.236-1.536-1.302-.8-2.51-1.745-3.645-2.767-1.967-1.8-3.733-3.844-5.06-6.162C.99 8.18.505 7.13.22 6.016.04 5.289-.073 4.53.054 3.785c.083-.518.3-1.025.675-1.401.559-.56 1.12-1.116 1.68-1.676.196-.199.405-.395.662-.515.239-.12.506-.17.77-.193z" fill="#00AFEA"/></svg>