<svg width="10" height="10" fill="none" xmlns="http://www.w3.org/2000/svg"><path d="M1.92 0h.055c.263.011.52.117.71.3l1.35 1.348c.16.158.267.372.285.598a.922.922 0 01-.38.836c-.139.102-.316.13-.457.226a.918.918 0 00-.423.754c-.004.097.02.19.049.282.1.363.294.692.516.993.406.53.91.992 1.495 1.32.244.124.502.252.782.252a.96.96 0 00.805-.44c.085-.138.115-.303.214-.432a.937.937 0 011.003-.338.984.984 0 01.437.264l1.273 1.27c.106.104.213.213.275.35.158.33.103.74-.115 1.03-.063.09-.147.163-.224.242l-.617.615c-.115.114-.225.236-.364.32-.231.146-.507.2-.776.21h-.12a3.894 3.894 0 01-.949-.178 7.491 7.491 0 01-1.618-.767c-.651-.4-1.255-.873-1.823-1.384-.983-.9-1.866-1.922-2.529-3.08C.494 4.09.252 3.563.11 3.007c-.09-.363-.146-.743-.083-1.116a1.27 1.27 0 01.337-.7l.84-.838c.099-.1.203-.198.331-.258.12-.06.253-.084.386-.096z" fill="#00AFEA"/></svg>