<svg width="10" height="10" viewBox="0 0 10 10" fill="none" xmlns="http://www.w3.org/2000/svg">
<path d="M1.92071 0H1.97455C2.23769 0.0113281 2.49515 0.116602 2.68467 0.299805C3.13421 0.749805 3.5853 1.19785 4.03464 1.64766C4.19558 1.80625 4.30228 2.02031 4.3203 2.24609C4.35084 2.56484 4.20615 2.89902 3.93988 3.08184C3.80126 3.18359 3.62446 3.21113 3.48291 3.30801C3.2323 3.47187 3.05726 3.75957 3.05961 4.06211C3.05609 4.15859 3.07978 4.25293 3.10875 4.34414C3.20821 4.70723 3.40322 5.03574 3.62544 5.33672C4.03112 5.86738 4.53508 6.32949 5.12029 6.65625C5.36366 6.78125 5.62249 6.90898 5.90247 6.90938C6.22141 6.9084 6.53937 6.74141 6.70736 6.46836C6.79174 6.33086 6.82189 6.16582 6.92135 6.03652C7.14083 5.72832 7.56256 5.59551 7.9236 5.69941C8.091 5.74434 8.24019 5.84121 8.36138 5.96348C8.78585 6.38633 9.20954 6.80977 9.63381 7.23262C9.74032 7.33672 9.84703 7.44648 9.90948 7.58379C10.0673 7.91289 10.0125 8.32383 9.79397 8.61289C9.73092 8.70371 9.64654 8.77617 9.56979 8.85488C9.36421 9.05996 9.15844 9.26523 8.95286 9.47031C8.83754 9.58359 8.72848 9.70645 8.58869 9.79062C8.35766 9.93574 8.08219 9.99043 7.81258 10H7.69237C7.36971 9.98555 7.05233 9.91562 6.74397 9.82246C6.17324 9.63984 5.63561 9.36699 5.12577 9.05469C4.47477 8.6541 3.87076 8.18184 3.30337 7.67109C2.32012 6.77109 1.43691 5.74922 0.77397 4.59023C0.494383 4.09004 0.251801 3.56445 0.109854 3.00781C0.0205739 2.64473 -0.0364007 2.26484 0.0268391 1.89238C0.0683464 1.6334 0.177401 1.37988 0.364379 1.19199C0.64377 0.912305 0.924532 0.633789 1.20412 0.354102C1.3026 0.254687 1.40715 0.15625 1.53539 0.0964844C1.65502 0.0361328 1.78835 0.0117188 1.92071 0Z" fill="#00AFEA"/>
</svg>
