<svg width="20" height="20" fill="none" xmlns="http://www.w3.org/2000/svg"><path d="M9.59.009a9.977 9.977 0 015.015 1.118 10.047 10.047 0 014.855 5.636 9.995 9.995 0 01-10.7 13.16 10.006 10.006 0 01-8.133-6.435 10.013 10.013 0 01-.482-5.189 10.015 10.015 0 012.699-5.285A10.02 10.02 0 019.59.01zm-.142 3.814a.907.907 0 00-.356.723c-.002 1.746 0 3.492-.001 5.238-.001.184-.01.377.065.55.064.176.199.31.33.437l2.43 2.43c.127.127.25.267.415.344a.911.911 0 001.301-.733.913.913 0 00-.262-.728c-.82-.822-1.642-1.64-2.461-2.463.002-1.607 0-3.213 0-4.82 0-.143.008-.287-.017-.428a.911.911 0 00-1.444-.55z" fill="#00AFEA"/></svg>