<svg width="43" height="43" fill="none" xmlns="http://www.w3.org/2000/svg"><path d="M0 10C0 4.477 4.477 0 10 0h23c5.523 0 10 4.477 10 10v23c0 5.523-4.477 10-10 10H10C4.477 43 0 38.523 0 33V10z" fill="#70C3F7"/><path d="M34.945 28.35c-.075-.127-.544-1.146-2.8-3.24-2.362-2.192-2.045-1.836.8-5.627 1.733-2.309 2.425-3.719 2.208-4.321-.206-.575-1.48-.423-1.48-.423l-4.237.024s-.314-.042-.548.097c-.227.138-.374.455-.374.455s-.671 1.787-1.566 3.306c-1.888 3.206-2.644 3.375-2.953 3.176-.717-.463-.537-1.864-.537-2.858 0-3.108.47-4.403-.918-4.738-.462-.111-.8-.185-1.98-.197-1.512-.016-2.793.005-3.517.36-.483.235-.855.762-.628.792.28.037.915.171 1.252.63.435.59.419 1.919.419 1.919s.25 3.657-.583 4.112c-.573.311-1.357-.325-3.04-3.235-.862-1.489-1.514-3.137-1.514-3.137s-.126-.306-.35-.47c-.27-.2-.652-.263-.652-.263l-4.028.025s-.605.018-.827.28c-.197.235-.016.717-.016.717s3.155 7.38 6.726 11.1c3.276 3.41 6.995 3.187 6.995 3.187h1.684s.51-.057.769-.337c.24-.257.23-.74.23-.74s-.033-2.261 1.018-2.595c1.034-.327 2.363 2.186 3.771 3.153 1.065.732 1.874.572 1.874.572l3.766-.053s1.97-.122 1.036-1.671z" fill="#18171D"/></svg>